<?xml version="1.0" standalone="no"?>
<!DOCTYPE svg PUBLIC "-//W3C//DTD SVG 20010904//EN"
 "http://www.w3.org/TR/2001/REC-SVG-20010904/DTD/svg10.dtd">
<svg version="1.0" xmlns="http://www.w3.org/2000/svg"
 width="512.000000pt" height="512.000000pt" viewBox="0 0 512.000000 512.000000"
 preserveAspectRatio="xMidYMid meet">

<g transform="translate(0.000000,512.000000) scale(0.100000,-0.100000)"
fill="#000000" stroke="none">
<path d="M1195 4673 c-242 -31 -477 -123 -657 -258 -266 -200 -447 -493 -515
-832 -24 -122 -24 -394 0 -516 81 -406 338 -789 830 -1234 219 -200 385 -337
867 -722 245 -195 534 -426 642 -513 l197 -158 478 380 c657 523 883 706 1058
856 193 165 498 470 605 604 219 275 344 523 397 787 24 122 24 394 0 516 -84
421 -347 772 -712 951 -193 95 -342 133 -556 143 -299 13 -554 -56 -795 -217
-116 -77 -322 -291 -404 -418 -36 -56 -67 -101 -70 -101 -3 0 -34 45 -70 100
-78 121 -249 305 -364 390 -96 72 -291 170 -396 199 -152 42 -392 61 -535 43z
m420 -323 c301 -81 551 -303 718 -637 35 -70 69 -143 75 -161 l11 -33 142 3
141 3 22 55 c165 405 443 679 781 770 112 30 308 37 437 16 496 -81 847 -475
875 -982 26 -477 -233 -887 -952 -1508 -152 -131 -1277 -1033 -1298 -1042 -7
-2 -73 44 -147 103 -74 60 -288 229 -475 378 -367 291 -650 523 -785 644 -509
455 -741 765 -831 1116 -33 127 -33 368 -1 498 106 424 417 718 840 793 115
20 345 12 447 -16z"/>
</g>
</svg>
