<svg height="64" width="65.913" xmlns="http://www.w3.org/2000/svg"><path d="m0 0h64v64h-64z" fill="none" transform="translate(.957)"/><g fill="#dedede" transform="matrix(.93969262 .34202014 -.34202014 .93969262 24.798995 -22.763171)"><path d="m52.792 48.67a7.479 7.479 0 0 0 -5.29-7.142c.006-.317.024-.644.044-.984a6.649 6.649 0 0 0 -.505-3.795 6.691 6.691 0 0 0 -3.067-2.355 7.938 7.938 0 0 1 -2.036-1.266 7.935 7.935 0 0 1 -1.266-2.036 6.69 6.69 0 0 0 -2.355-3.067 6.652 6.652 0 0 0 -3.795-.5 8.087 8.087 0 0 1 -2.436-.086 7.763 7.763 0 0 1 -2.062-1.106 6.739 6.739 0 0 0 -3.624-1.498 6.738 6.738 0 0 0 -3.628 1.494 7.766 7.766 0 0 1 -2.062 1.106 8.09 8.09 0 0 1 -2.435.086 6.649 6.649 0 0 0 -3.795.505 6.691 6.691 0 0 0 -2.355 3.067 7.932 7.932 0 0 1 -1.266 2.036 7.933 7.933 0 0 1 -2.036 1.266 6.692 6.692 0 0 0 -3.072 2.355 6.649 6.649 0 0 0 -.505 3.795c.02.341.038.666.044.984a7.466 7.466 0 0 0 0 14.284 24.95 24.95 0 0 1 -.044.984 6.65 6.65 0 0 0 .5 3.795 6.692 6.692 0 0 0 3.067 2.355 7.929 7.929 0 0 1 2.036 1.266 7.933 7.933 0 0 1 1.266 2.036 6.69 6.69 0 0 0 2.355 3.067 6.646 6.646 0 0 0 3.795.505 8.086 8.086 0 0 1 2.435.086 7.76 7.76 0 0 1 2.063 1.106 6.737 6.737 0 0 0 3.637 1.493 6.738 6.738 0 0 0 3.628-1.494 7.767 7.767 0 0 1 2.062-1.106 8.084 8.084 0 0 1 2.435-.086 6.653 6.653 0 0 0 3.795-.505 6.691 6.691 0 0 0 2.355-3.067 7.933 7.933 0 0 1 1.266-2.036 7.935 7.935 0 0 1 2.036-1.266 6.691 6.691 0 0 0 3.067-2.355 6.649 6.649 0 0 0 .5-3.795 24.95 24.95 0 0 1 -.044-.984 7.479 7.479 0 0 0 5.29-7.142zm-46-8.215a5.524 5.524 0 0 1 .3-2.931 5.556 5.556 0 0 1 2.419-1.746 9.132 9.132 0 0 0 2.439-1.556 9.136 9.136 0 0 0 1.55-2.438 5.554 5.554 0 0 1 1.746-2.419 5.523 5.523 0 0 1 2.93-.3 9.3 9.3 0 0 0 2.924-.136 8.948 8.948 0 0 0 2.516-1.31 5.584 5.584 0 0 1 2.784-1.237 5.584 5.584 0 0 1 2.775 1.237 8.948 8.948 0 0 0 2.516 1.31 9.3 9.3 0 0 0 2.925.136 5.525 5.525 0 0 1 2.93.3 5.555 5.555 0 0 1 1.746 2.419 9.133 9.133 0 0 0 1.556 2.439 9.135 9.135 0 0 0 2.439 1.556 5.555 5.555 0 0 1 2.413 1.746 5.523 5.523 0 0 1 .3 2.93 32.4 32.4 0 0 0 -.039.778 7.442 7.442 0 0 0 -.636-.029h-2.459a18.086 18.086 0 0 0 -32.94 0h-2.46c-.215 0-.427.011-.637.029a32.143 32.143 0 0 0 -.039-.778zm39.208 16.431a5.524 5.524 0 0 1 -.3 2.93 5.554 5.554 0 0 1 -2.419 1.746 9.134 9.134 0 0 0 -2.439 1.556 9.137 9.137 0 0 0 -1.556 2.439 5.555 5.555 0 0 1 -1.746 2.419 5.524 5.524 0 0 1 -2.93.3 9.3 9.3 0 0 0 -2.924.136 8.947 8.947 0 0 0 -2.516 1.31 5.584 5.584 0 0 1 -2.77 1.237 5.585 5.585 0 0 1 -2.774-1.237 8.943 8.943 0 0 0 -2.517-1.31 9.3 9.3 0 0 0 -2.924-.136 5.522 5.522 0 0 1 -2.93-.3 5.554 5.554 0 0 1 -1.755-2.419 9.131 9.131 0 0 0 -1.556-2.439 9.137 9.137 0 0 0 -2.434-1.556 5.554 5.554 0 0 1 -2.42-1.746 5.522 5.522 0 0 1 -.3-2.931c.015-.255.029-.516.039-.778.21.018.422.029.637.029h2.46a18.086 18.086 0 0 0 32.94 0h2.46c.215 0 .426-.011.636-.029.009.262.025.522.039.778zm-.676-2.3h-10.86a.773.773 0 1 0 0 1.547h6.685a16.535 16.535 0 0 1 -29.505 0h19.727a.773.773 0 1 0 0-1.547h-23.905a5.92 5.92 0 0 1 0-11.839h10.409a.773.773 0 1 0 0-1.547h-6.232a16.535 16.535 0 0 1 29.505 0h-20.18a.773.773 0 1 0 0 1.547h24.358a5.92 5.92 0 1 1 0 11.839z"/><path d="m364.791 224.973-.008-.021a.873.873 0 0 0 -.811-.543.873.873 0 0 0 -.81.545l-.007.017-1.708 4.484a.773.773 0 0 0 1.428.59h2.182a.772.772 0 0 0 1.427-.588zm-.323 3.525h-1l.5-1.322z" transform="translate(-324.132 -178.996)"/><path d="m429.353 228.954h-.815v-3.774a.773.773 0 0 0 -1.547 0v4.544a.773.773 0 0 0 .642.762c.056.01 1.2.014 1.728.011a.773.773 0 0 0 0-1.547z" transform="translate(-382.96 -178.997)"/><path d="m272.6 224.41a.773.773 0 0 0 -.773.773v4.548a.773.773 0 0 0 1.547 0v-4.548a.773.773 0 0 0 -.774-.773z" transform="translate(-243.802 -178.997)"/><path d="m173.294 224.41a.773.773 0 0 0 -.773.773v4.548a.773.773 0 0 0 1.547 0v-4.548a.773.773 0 0 0 -.774-.773z" transform="translate(-154.732 -178.997)"/><path d="m207.966 226.682h-1.36a.773.773 0 1 0 0 1.547h.447a1.06 1.06 0 0 1 -1.05.727 1.5 1.5 0 1 1 .839-2.746.773.773 0 1 0 .866-1.282 3.047 3.047 0 1 0 -1.708 5.572 2.778 2.778 0 0 0 2.736-3.047.773.773 0 0 0 -.77-.771z" transform="translate(-182.029 -178.995)"/><path d="m122.565 226.365a1.992 1.992 0 0 0 -2.022-1.955h-1.21a.773.773 0 0 0 -.773.773v4.548a.773.773 0 0 0 1.547 0v-.745l1.105 1.256a.773.773 0 0 0 1.161-1.022l-.961-1.092a1.952 1.952 0 0 0 1.154-1.763zm-2.022-.409a.413.413 0 1 1 0 .817h-.431v-.818h.433z" transform="translate(-106.334 -178.997)"/><path d="m50.055 224.41a3.047 3.047 0 1 0 3.047 3.047 3.051 3.051 0 0 0 -3.047-3.047zm0 4.548a1.5 1.5 0 1 1 1.5-1.5 1.5 1.5 0 0 1 -1.5 1.5z" transform="translate(-42.161 -178.997)"/><path d="m307.089 224.41h-.008a.773.773 0 0 0 -.766.781l.02 2.1-1.755-2.542a.773.773 0 0 0 -1.41.439v4.539a.773.773 0 0 0 1.547 0v-2.059l1.66 2.4a.84.84 0 0 0 .939.34.853.853 0 0 0 .587-.846l-.042-4.395a.773.773 0 0 0 -.772-.757z" transform="translate(-271.911 -178.997)"/><path d="m217.171 141.168h6.62a.773.773 0 0 0 0-1.547h-6.62a.773.773 0 1 0 0 1.547z" transform="translate(-194.085 -102.95)"/><path d="m223.791 351.379h-6.62a.773.773 0 1 0 0 1.547h6.62a.773.773 0 1 0 0-1.547z" transform="translate(-194.084 -292.874)"/></g></svg>